<svg width="52" height="52" viewBox="0 0 52 52" fill="none" xmlns="http://www.w3.org/2000/svg">
<path d="M16.6429 23.967C15.3622 23.5982 14.0815 23.4111 12.8356 23.4111C10.9118 23.4111 9.30655 23.8508 8.06181 24.3891C9.26182 19.996 12.1446 12.4157 17.8871 11.5621C18.4189 11.483 18.8548 11.0984 18.9999 10.5808L20.2549 6.09161C20.3608 5.71197 20.298 5.3056 20.0815 4.97614C19.8649 4.64668 19.5169 4.42686 19.1269 4.37341C18.7031 4.31559 18.2711 4.28613 17.8429 4.28613C10.95 4.28613 4.12362 11.4808 1.24306 21.7824C-0.447851 27.8261 -0.943671 36.9124 3.22143 42.6316C5.55217 45.8318 8.95255 47.5407 13.3282 47.7115C13.3462 47.712 13.3637 47.7126 13.3817 47.7126C18.7806 47.7126 23.568 44.0765 25.0244 38.8712C25.8944 35.7593 25.5011 32.4958 23.916 29.6796C22.3479 26.895 19.7651 24.8653 16.6429 23.967Z" fill="#DCDCDC"/>
<path d="M50.4389 29.6801C48.8707 26.895 46.288 24.8653 43.1658 23.967C41.885 23.5982 40.6043 23.4111 39.359 23.4111C37.4352 23.4111 35.8294 23.8508 34.5846 24.3891C35.7846 19.996 38.6674 12.4157 44.4105 11.5621C44.9423 11.483 45.3776 11.0984 45.5232 10.5808L46.7783 6.09161C46.8841 5.71197 46.8214 5.3056 46.6049 4.97614C46.3889 4.64668 46.0409 4.42686 45.6503 4.37341C45.227 4.31559 44.795 4.28613 44.3663 4.28613C37.4734 4.28613 30.647 11.4808 27.7659 21.7824C26.0755 27.8261 25.5797 36.9124 29.7453 42.6327C32.0755 45.8323 35.4765 47.5418 39.8516 47.712C39.8696 47.7126 39.887 47.7131 39.9056 47.7131C45.304 47.7131 50.092 44.077 51.5483 38.8717C52.4172 35.7598 52.0234 32.4958 50.4389 29.6801Z" fill="#DCDCDC"/>
</svg>
