<svg width="1920" height="790" viewBox="0 0 1920 790" fill="none" xmlns="http://www.w3.org/2000/svg">
<path d="M-108.441 807.428C-119.219 753.708 -33.279 708.315 53.377 699.956C140.033 691.614 226.971 708.836 312.833 719.88C398.695 730.924 495.31 734.574 567.041 703.416C658.739 663.584 679.959 579.8 774.298 542.383C847.821 513.216 943.54 521.954 1018.88 543.647C1061.48 555.908 1097.7 576.547 1138.41 590.921C1323.03 656.112 1335.5 789.306 1492.35 809.182C1662.21 830.682 1754.37 779.573 1786.42 744.133C1827.48 698.724 1895.94 580.919 1728.18 499.043C1660.03 465.784 1592.73 430.329 1542.61 386.531C1467.55 320.961 1468.06 220.726 1564.03 166.531C1629.82 129.401 1730.87 115.831 1775.57 68.208C1805.6 36.213 1801.5 -5.04097 1775.67 -38.426C1749.84 -71.8 1704.86 -98.2 1656.01 -119.59" stroke="#8A8A8A" stroke-miterlimit="10"/>
<path d="M-104.55 810.113C-111.974 754.845 -26.521 707.097 62.72 697.601C149.837 688.326 238.208 705.422 324.07 717.601C408.934 729.641 503.142 735.107 574.643 706.794C665.984 670.549 691.661 591.012 785.869 554.087C860.928 524.825 955.111 530.276 1032.24 549.236C1076.56 560.136 1115.83 579.572 1158.45 594.155C1339.21 655.965 1354.09 784.845 1507.53 804.437C1672.58 825.467 1764.25 777.103 1797.55 742.217C1839.77 698.009 1905.07 584.501 1746.55 503.558C1681.2 470.188 1616.4 434.058 1567.07 390.525C1494.21 326.519 1493.55 229.839 1584.15 176.119C1646.84 138.957 1744.25 123.819 1788.75 76.819C1819.29 44.698 1817.42 4.02802 1794.84 -29.594C1772.08 -63.532 1730.53 -91.419 1683.58 -114.394" stroke="#909090" stroke-miterlimit="10"/>
<path d="M-100.659 812.784C-104.759 755.984 -19.759 705.884 72.064 695.216C159.616 685.041 249.421 701.963 335.309 715.316C419.174 728.349 511.001 735.628 582.274 710.147C673.231 677.504 703.26 602.075 797.493 565.782C873.96 536.331 966.837 538.543 1045.68 554.817C1091.76 564.329 1134 582.609 1178.57 597.382C1355.29 655.968 1372.72 780.362 1522.77 799.682C1683.02 820.238 1774.16 774.607 1808.74 740.29C1852.09 697.298 1914.29 588.01 1765.02 508.077C1702.45 474.577 1640.14 437.783 1591.61 394.538C1520.98 332.081 1519.13 238.938 1604.33 185.738C1663.93 148.529 1757.7 131.844 1802.01 85.471C1833.06 53.207 1833.42 13.107 1814.12 -20.737C1794.41 -55.26 1756.32 -84.637 1711.26 -109.17" stroke="#959595" stroke-miterlimit="10"/>
<path d="M-96.771 815.47C-97.536 757.12 -13.03 704.712 81.408 692.842C169.421 681.782 260.659 698.498 346.547 713.019C429.389 727.019 518.835 736.166 589.875 713.509C680.475 684.453 714.905 613.242 809.062 577.487C887.014 547.894 978.585 546.787 1059.05 560.407C1106.95 568.512 1152.08 585.655 1198.65 600.634C1371.16 656.124 1391.34 775.903 1537.97 794.958C1693.44 815.04 1784.04 772.143 1819.91 738.394C1864.32 696.587 1923.51 591.454 1783.43 512.612C1723.6 478.942 1664 441.449 1616.11 398.552C1547.96 337.532 1544.66 248.01 1624.51 195.352C1681.01 158.08 1770.96 139.799 1815.25 94.106C1846.69 61.669 1849.45 22.153 1833.35 -11.88C1816.71 -47.019 1782.05 -77.829 1738.91 -103.947" stroke="#9B9B9B" stroke-miterlimit="10"/>
<path d="M-92.877 818.156C-90.317 758.256 -6.27702 703.556 90.752 690.492C179.226 678.579 271.872 695.042 357.786 710.763C439.629 725.726 526.669 736.722 597.504 716.909C687.718 691.439 726.579 624.432 820.685 589.229C900.122 559.493 990.464 555.022 1072.49 566.05C1122.23 572.733 1170.23 588.77 1218.76 603.923C1386.96 656.442 1409.99 771.498 1553.23 790.268C1703.91 809.86 1793.92 769.712 1831.12 736.532C1876.61 695.926 1932.8 594.853 1801.88 517.196C1744.79 483.337 1687.81 445.227 1640.63 402.614C1574.78 343.114 1570.2 257.096 1644.67 205.003C1698.1 167.636 1784.35 147.854 1828.48 102.777C1860.38 70.197 1865.5 31.203 1852.57 -3.00398C1839.05 -38.791 1807.77 -71.004 1766.53 -98.704" stroke="#A0A0A0" stroke-miterlimit="10"/>
<path d="M-88.986 820.842C-83.072 759.412 0.486038 702.405 100.096 688.122C189.03 675.376 283.084 691.566 369.024 708.476C449.869 724.387 534.579 737.343 605.107 720.276C695.04 698.519 738.253 635.62 832.281 600.923C913.228 571.061 1002.37 563.161 1085.88 571.63C1137.51 576.86 1188.3 591.822 1238.84 607.148C1402.57 656.823 1428.61 767.012 1568.41 785.514C1714.3 804.632 1803.75 767.214 1842.25 734.606C1888.79 695.185 1942.04 598.078 1820.26 521.717C1765.91 487.636 1711.51 448.926 1665.1 406.617C1601.54 348.647 1595.67 266.076 1664.79 214.6C1715.12 177.107 1797.68 155.84 1841.69 111.41C1874.07 78.7 1881.55 40.196 1871.77 5.83103C1861.38 -30.635 1833.45 -64.242 1794.16 -93.504" stroke="#A6A6A6" stroke-miterlimit="10"/>
<path d="M-85.095 823.512C-75.855 760.533 7.24504 701.268 109.439 685.736C198.839 672.164 294.322 688.059 380.287 706.181C460.133 723.024 542.437 737.876 612.761 723.64C702.31 705.486 749.977 646.789 843.903 612.629C926.335 582.641 1014.32 571.265 1099.31 577.221C1152.84 580.981 1206.4 594.901 1258.96 610.385C1418.16 657.311 1447.27 762.555 1583.67 780.772C1724.75 799.416 1813.6 764.735 1853.44 732.693C1901 694.457 1951.41 601.206 1838.69 526.235C1787.06 491.886 1735.27 452.635 1689.62 410.611C1628.34 354.173 1621.17 275 1684.96 224.187C1732.22 186.551 1811.09 163.831 1854.92 120.018C1887.79 87.17 1897.67 49.139 1890.99 14.664C1883.77 -22.482 1859.17 -57.463 1821.77 -88.305" stroke="#ABABAB" stroke-miterlimit="10"/>
<path d="M-81.204 826.198C-68.634 761.687 14.028 700.162 118.783 683.382C208.639 668.988 305.535 684.551 391.525 703.922C470.373 721.665 550.271 738.461 620.363 727.022C709.553 712.486 761.649 658.008 855.499 624.354C939.441 594.239 1026.28 579.324 1112.7 582.832C1168.15 585.076 1224.44 598.016 1279.02 613.642C1433.59 657.914 1465.88 758.101 1598.84 776.05C1735.14 794.22 1823.38 762.257 1864.57 730.799C1913.13 693.748 1960.8 604.257 1857.1 530.787C1806.95 495.229 1759.18 456.431 1714.1 414.641C1655.06 359.736 1646.59 283.912 1705.08 233.81C1749.24 195.985 1824.46 171.858 1868.13 128.661C1901.49 95.671 1913.83 58.114 1910.19 23.512C1906.2 -14.345 1884.87 -50.688 1849.37 -83.088" stroke="#B1B1B1" stroke-miterlimit="10"/>
<path d="M-77.312 828.884C-61.412 762.824 20.788 699.055 128.128 681.012C218.47 665.828 316.774 681.028 402.765 701.631C480.615 720.275 558.106 738.998 627.965 730.387C716.771 719.453 773.347 669.194 867.065 636.061C952.518 605.836 1038.2 587.334 1126.09 588.424C1183.46 589.135 1242.46 601.124 1299.12 616.896C1448.98 658.608 1484.52 753.645 1614.07 771.325C1745.58 789.005 1833.18 759.775 1875.76 728.902C1925.27 693.02 1970.35 607.163 1875.53 535.32C1829.32 500.307 1782.73 460.112 1738.62 418.653C1681.84 365.296 1672.01 292.759 1725.25 243.415C1766.29 205.384 1837.87 179.852 1881.36 137.286C1915.21 104.169 1930.05 67.055 1929.41 32.358C1928.7 -6.20997 1910.6 -43.893 1877.01 -77.879" stroke="#B7B7B7" stroke-miterlimit="10"/>
<path d="M-73.421 831.554C-54.17 763.946 27.571 697.965 137.472 678.642C228.272 662.668 328.013 677.489 414.003 699.356C490.854 718.901 565.939 739.556 635.597 733.768C724.019 726.437 785.075 680.411 878.697 647.768C965.686 617.432 1050.22 595.296 1139.51 594.032C1198.83 593.179 1260.5 604.27 1319.22 620.149C1464.32 659.38 1503.13 749.203 1629.32 766.599C1756.04 783.805 1842.97 757.293 1886.95 727.004C1937.41 692.276 1980.04 609.958 1893.97 539.869C1850.5 504.461 1806.49 463.869 1763.12 422.68C1708.6 370.856 1697.36 301.573 1745.41 253.035C1783.32 214.752 1851.29 187.876 1894.61 145.943C1928.96 112.684 1946.32 76.0281 1948.65 41.2211C1951.26 1.94405 1936.31 -37.0979 1904.64 -72.6479" stroke="#BCBCBC" stroke-miterlimit="10"/>
<path d="M-69.53 834.24C-46.951 765.1 34.355 696.891 146.816 676.272C238.106 659.54 339.251 673.934 425.242 697.065C501.12 717.479 573.773 740.073 643.2 737.134C731.238 733.405 796.774 691.634 890.266 659.477C978.766 629.046 1062.14 603.229 1152.9 599.627C1214.13 597.194 1278.49 607.432 1339.29 623.39C1479.55 660.22 1521.74 744.734 1644.49 761.877C1766.42 778.609 1852.67 754.799 1898.08 725.126C1949.46 691.551 1989.78 612.646 1912.34 544.426C1871.64 508.56 1830.17 467.626 1787.59 426.716C1735.29 376.44 1722.59 310.349 1765.53 262.665C1800.27 224.097 1864.68 195.926 1907.79 154.593C1942.63 121.208 1962.6 84.993 1967.82 50.076C1973.81 10.086 1961.98 -30.299 1932.21 -67.424" stroke="#C2C2C2" stroke-miterlimit="10"/>
<path d="M-65.639 836.927C-39.732 766.237 41.139 695.848 156.159 673.902C247.935 656.396 350.514 670.379 436.479 694.79C511.385 716.057 581.579 740.626 650.828 740.515C738.457 740.373 808.498 702.864 901.887 671.2C991.922 640.674 1074.12 611.144 1166.31 605.235C1229.46 601.19 1296.49 610.623 1359.38 626.644C1494.76 661.135 1540.38 740.278 1659.72 757.152C1776.84 773.41 1862.42 752.286 1909.27 723.229C1961.57 690.792 1999.77 615.189 1930.8 548.971C1892.91 512.599 1853.9 471.377 1812.12 430.74C1762.02 382.029 1747.81 319.066 1785.7 272.282C1817.19 233.398 1878.12 203.947 1921.05 163.23C1956.4 129.702 1978.98 93.947 1987.07 58.93C1996.49 18.23 1987.74 -23.514 1959.88 -62.209" stroke="#C7C7C7" stroke-miterlimit="10"/>
<path d="M-61.748 839.612C-32.487 767.39 47.922 694.805 165.503 671.547C257.765 653.298 361.778 666.807 447.717 692.514C521.675 714.634 589.417 741.162 658.431 743.896C745.676 747.34 820.223 714.096 913.458 682.908C1005.03 652.288 1086.03 619.008 1179.7 610.828C1244.75 605.156 1314.43 613.828 1379.46 629.899C1509.91 662.115 1558.94 735.98 1674.93 752.428C1787.21 768.339 1872.13 749.774 1920.43 721.334C1973.6 690.018 2009.93 617.607 1949.2 553.506C1914.2 516.566 1877.6 475.122 1836.62 434.753C1788.74 387.59 1772.9 327.724 1805.84 281.904C1834.06 242.673 1891.53 211.973 1934.25 171.889C1970.12 138.235 1995.34 102.938 2006.27 67.7991C2019.14 26.3871 2013.44 -16.7009 1987.48 -56.9739" stroke="#CDCDCD" stroke-miterlimit="10"/>
<path d="M-57.831 842.282C-25.241 768.512 54.759 693.762 174.873 669.161C267.647 650.169 373.073 663.204 458.982 690.222C531.968 713.179 597.273 741.683 666.06 747.244C752.921 754.275 831.974 725.314 925.081 694.598C1018.19 663.898 1097.96 626.832 1193.11 616.42C1260.06 609.089 1332.38 617.068 1399.55 633.136C1525.04 663.124 1577.57 731.523 1690.14 747.686C1797.63 763.123 1881.83 747.228 1931.6 719.42C1985.64 689.226 2020.33 619.896 1967.61 558.039C1935.61 520.467 1901.28 478.865 1861.11 438.765C1815.44 393.165 1797.88 336.349 1825.99 291.509C1850.82 251.898 1904.94 219.998 1947.49 180.514C1983.87 146.734 2011.77 111.914 2025.49 76.6451C2041.88 34.5541 2039.16 -9.92296 2015.12 -51.762" stroke="#D2D2D2" stroke-miterlimit="10"/>
<path d="M-53.94 844.968C-18.023 769.668 61.567 692.751 184.217 666.791C277.503 647.057 384.358 659.591 470.217 687.947C542.281 711.742 605.103 742.22 673.686 750.626C760.163 761.244 843.721 736.564 936.675 706.326C1031.32 675.548 1109.83 634.673 1206.52 622.033C1275.34 613.043 1350.29 620.374 1419.67 636.395C1540.17 664.235 1596.23 727.071 1705.39 742.966C1808.1 757.929 1891.56 744.688 1942.81 717.528C1997.72 688.428 2031.02 622.112 1986.07 562.593C1957.19 524.357 1925.01 482.645 1885.64 442.793C1842.15 398.774 1822.79 344.959 1846.17 301.13C1867.52 261.109 1918.41 228.039 1960.73 189.155C1997.62 155.264 2028.23 120.899 2044.72 85.491C2064.66 42.72 2064.87 -3.13099 2042.75 -46.55" stroke="#D8D8D8" stroke-miterlimit="10"/>
<path d="M-50.048 847.654C-10.803 770.803 68.402 691.74 193.562 664.437C287.362 643.976 395.674 655.984 481.462 685.672C552.579 710.288 612.944 742.742 681.296 754.007C767.389 768.195 855.453 747.813 948.278 718.046C1044.48 687.189 1121.69 642.49 1219.92 627.638C1290.6 616.957 1368.2 623.704 1439.75 639.646C1555.23 665.368 1614.83 722.612 1720.58 738.238C1818.5 752.711 1901.19 742.138 1953.95 715.628C2009.71 687.615 2041.94 624.241 2004.46 567.128C1978.91 528.165 1948.65 486.39 1910.12 446.811C1868.8 404.356 1847.53 353.544 1866.3 310.741C1884.04 270.293 1931.83 236.07 1973.92 197.803C2011.34 163.786 2044.65 129.91 2063.93 94.345C2087.45 50.927 2090.58 3.66904 2070.35 -41.33" stroke="#DEDEDE" stroke-miterlimit="10"/>
<path d="M-46.157 850.325C-3.55698 771.925 75.243 690.725 202.931 662.052C297.241 640.88 407.014 652.352 492.723 683.382C562.944 708.804 620.8 743.248 688.947 757.373C774.681 775.136 867.225 759.064 959.897 729.736C1057.66 698.815 1133.57 650.246 1233.36 633.214C1305.86 620.827 1386.09 627.068 1459.86 642.868C1570.3 666.536 1633.48 718.123 1735.83 733.481C1828.97 747.464 1910.89 739.532 1965.16 713.699C2021.73 686.76 2053.2 626.293 2022.94 571.641C2000.92 531.904 1972.35 490.129 1934.67 450.803C1895.5 409.928 1872.18 362.103 1886.49 320.327C1900.49 279.452 1945.32 244.076 1987.2 206.409C2025.14 172.265 2061.18 138.896 2083.2 103.172C2110.31 59.106 2116.35 10.426 2098.05 -36.137" stroke="#E3E3E3" stroke-miterlimit="10"/>
<path d="M-42.266 853.011C3.66001 773.079 82.073 689.75 212.275 659.698C307.097 637.798 418.355 648.717 503.961 681.107C573.261 707.335 628.684 743.707 696.55 760.755C781.977 781.99 878.95 770.33 971.494 741.463C1070.82 710.479 1145.37 658.055 1246.74 638.826C1321.06 624.732 1403.93 630.515 1479.94 646.141C1585.34 667.787 1652.15 713.56 1751.04 728.775C1839.41 742.158 1920.54 736.975 1976.32 711.822C2033.72 685.942 2064.71 628.382 2041.34 576.195C2023.19 535.668 1995.98 493.924 1959.16 454.835C1922.14 415.54 1896.67 370.7 1906.63 329.952C1916.74 288.652 1958.75 252.121 2000.41 215.052C2038.88 180.798 2077.67 147.934 2102.39 112.02C2133.14 67.34 2142.05 17.223 2125.64 -30.92" stroke="#E9E9E9" stroke-miterlimit="10"/>
<path d="M-38.375 855.696C10.879 774.215 88.908 688.769 221.593 657.327C316.953 634.717 429.693 645.066 515.174 678.827C583.603 705.845 636.518 744.239 704.153 764.127C789.196 788.949 890.7 781.586 983.065 753.178C1083.96 722.147 1157.12 665.82 1260.13 644.442C1336.27 628.642 1421.72 634.042 1500.01 649.403C1600.36 669.09 1670.76 709.111 1766.22 724.058C1849.8 736.967 1930.14 734.375 1987.45 709.933C2045.67 685.111 2076.54 630.506 2059.72 580.752C2045.75 539.435 2019.58 497.723 1983.61 458.871C1948.72 421.171 1920.97 379.35 1926.73 339.581C1932.77 297.869 1972.17 260.186 2013.59 223.704C2052.63 189.339 2094.13 156.996 2121.57 120.893C2155.95 75.61 2167.71 24.023 2153.22 -25.684" stroke="#EEEEEE" stroke-miterlimit="10"/>
<path d="M-34.484 858.383C18.098 775.354 95.769 687.806 230.937 654.958C326.837 631.658 441.062 641.402 526.412 676.541C593.945 704.349 644.351 744.765 711.756 767.486C796.441 795.894 902.527 792.956 994.662 764.879C1097.22 733.927 1168.9 673.571 1273.52 650.029C1351.42 632.491 1439.51 637.629 1520.1 652.636C1615.41 670.379 1689.39 704.636 1781.45 719.312C1860.25 731.747 1939.79 731.747 1998.64 708.012C2057.68 684.217 2088.73 632.693 2078.16 585.262C2068.76 543.187 2043.19 501.475 2008.14 462.862C1975.37 426.762 1945.24 387.986 1946.9 349.162C1948.72 307.087 1985.77 268.234 2026.83 232.321C2066.51 197.893 2110.67 166.04 2140.8 129.716C2178.84 83.849 2193.43 30.792 2180.86 -20.495" stroke="#F4F4F4" stroke-miterlimit="10"/>
<path d="M-30.592 861.053C25.318 776.492 102.707 686.969 240.282 652.592C336.768 628.671 452.455 637.74 537.652 674.27C604.34 702.87 652.186 745.323 719.361 770.87C803.661 802.881 914.228 804.176 1006.23 776.59C1110.32 745.543 1180.6 681.332 1286.91 655.625C1366.58 636.349 1457.26 641.31 1540.17 655.878C1630.47 671.741 1708.01 700.178 1796.63 714.578C1870.64 726.523 1949.36 729.098 2009.78 706.109C2069.61 683.325 2101.15 635.056 2096.57 589.809C2092.21 547.054 2066.74 505.279 2032.64 466.901C2001.97 432.394 1969.38 396.749 1967.05 358.801C1964.47 316.425 1999.18 276.293 2040.07 240.98C2080.26 206.41 2127.18 175.141 2160.03 138.58C2201.73 92.144 2219.16 37.586 2208.49 -15.265" stroke="#F9F9F9" stroke-miterlimit="10"/>
<path d="M-26.701 863.739C32.563 777.629 109.517 685.91 249.651 650.218C346.624 625.518 463.897 634.039 548.915 671.99C614.733 701.362 660.07 745.855 727.015 774.248C810.957 809.848 925.978 815.407 1017.88 788.31C1123.48 757.168 1192.37 689.102 1300.35 661.231C1381.79 640.217 1475 645.131 1560.29 659.145C1645.57 673.16 1726.67 695.738 1811.89 709.879C1881.09 721.35 1959.04 726.485 2020.99 704.238C2081.64 682.466 2113.89 637.673 2115.02 594.381C2116.15 551.089 2090.34 509.108 2057.17 470.951C2028.57 438.04 1993.45 405.602 1987.23 368.456C1980.09 325.856 2012.6 284.356 2053.3 249.656C2094 214.956 2143.72 184.256 2179.25 147.477C2224.64 100.488 2244.89 44.429 2236.13 -10.001" stroke="white" stroke-miterlimit="10"/>
</svg>
